<svg width="39" height="37" viewBox="0 0 39 37" fill="none" xmlns="http://www.w3.org/2000/svg">
<g clip-path="url(#clip0_1_497)">
<path d="M32.5872 7.82457C32.5872 7.82457 32.8041 8.00037 33.2377 8.35197C33.6714 8.70358 34.2163 8.87938 34.8727 8.87938C35.4118 8.87938 35.8513 8.73288 36.1912 8.43987C36.5311 8.14687 36.701 7.78941 36.701 7.36748C36.701 6.82836 36.4901 6.42987 36.0681 6.17203C35.6462 5.91418 35.1422 5.78526 34.5562 5.78526H33.8179L33.4311 4.83593L35.2594 2.62083C35.3766 2.48019 35.4997 2.3454 35.6286 2.21648C35.7575 2.08756 35.8923 1.9645 36.033 1.8473C36.033 1.8473 35.9568 1.8473 35.8044 1.8473C35.6521 1.8473 35.4235 1.8473 35.1188 1.8473H32.0598V0.265079H38.2832V1.42537L35.822 4.30853C36.5252 4.40229 37.164 4.70115 37.7382 5.20512C38.3125 5.70908 38.5997 6.40643 38.5997 7.29716C38.5997 8.16445 38.2891 8.93798 37.6679 9.61775C37.0468 10.2975 36.1619 10.6374 35.0133 10.6374C33.9116 10.6374 33.0736 10.4089 32.4993 9.95177C31.9251 9.49469 31.6379 9.26614 31.6379 9.26614L32.5872 7.82457ZM20.4217 9.96935L28.6493 24.6312L32.7279 17.3882L24.9223 3.57016H15.9212L12.1942 10.2506L8.43205 3.57016H0.309998L12.1239 24.6312L12.1942 24.5258L12.2294 24.6312L20.4217 9.96935ZM0.380318 34.5465H1.61093C1.61093 34.734 1.68125 34.8922 1.82189 35.0211C1.96254 35.1501 2.16178 35.2145 2.41962 35.2145C2.67746 35.2145 2.88843 35.1618 3.05251 35.0563C3.21659 34.9508 3.29863 34.816 3.29863 34.652C3.29863 34.5113 3.24589 34.4 3.14041 34.3179C3.03493 34.2359 2.88843 34.1831 2.70091 34.1597L1.9977 33.9487C1.43513 33.8081 1.04837 33.5913 0.837404 33.2983C0.626441 33.0053 0.52096 32.6947 0.52096 32.3665C0.52096 31.9915 0.702622 31.6399 1.06595 31.3117C1.42927 30.9836 1.89222 30.8195 2.45478 30.8195C2.92359 30.8195 3.36895 30.9484 3.79088 31.2062C4.2128 31.4641 4.42376 31.8743 4.42376 32.4368H3.19315C3.19315 32.2728 3.12283 32.138 2.98219 32.0325C2.84155 31.927 2.67746 31.8743 2.48994 31.8743C2.30242 31.8743 2.1442 31.9329 2.01528 32.0501C1.88636 32.1673 1.82189 32.2962 1.82189 32.4368C1.82189 32.5775 1.87464 32.683 1.98012 32.7533C2.0856 32.8236 2.20866 32.8822 2.3493 32.9291L3.19315 33.1401C3.77916 33.3041 4.1542 33.5385 4.31828 33.8433C4.48237 34.148 4.56441 34.4176 4.56441 34.652C4.56441 35.1676 4.34758 35.5661 3.91394 35.8474C3.48029 36.1287 2.99391 36.2693 2.45478 36.2693C1.96254 36.2693 1.49959 36.1228 1.06595 35.8298C0.632301 35.5368 0.403759 35.109 0.380318 34.5465ZM5.65438 33.562C5.65438 32.7416 5.9298 32.0794 6.48065 31.5754C7.03149 31.0715 7.68196 30.8195 8.43205 30.8195C8.45549 30.8195 8.46721 30.8195 8.46721 30.8195C8.88914 30.8195 9.2759 30.9132 9.6275 31.1008C9.97911 31.2883 10.2838 31.5344 10.5417 31.8391L9.6275 32.5775C9.48686 32.4134 9.31692 32.2786 9.11768 32.1731C8.91844 32.0677 8.71333 32.0149 8.50237 32.0149H8.46721C8.02185 32.0149 7.65266 32.1614 7.35966 32.4544C7.06666 32.7474 6.92015 33.1166 6.92015 33.562C6.92015 34.0073 7.06666 34.3707 7.35966 34.652C7.65266 34.9332 8.02185 35.0739 8.46721 35.0739C8.70161 35.0739 8.91844 35.027 9.11768 34.9332C9.31692 34.8395 9.48686 34.7106 9.6275 34.5465L10.5417 35.2497C10.2838 35.5544 9.97911 35.8005 9.6275 35.988C9.2759 36.1756 8.88914 36.2693 8.46721 36.2693C8.46721 36.2693 8.45549 36.2693 8.43205 36.2693C7.68196 36.2693 7.03149 36.0232 6.48065 35.531C5.9298 35.0387 5.65438 34.3824 5.65438 33.562ZM16.7299 33.2455V36.1287H15.429V33.3159C15.429 32.8939 15.3235 32.5775 15.1125 32.3665C14.9016 32.1556 14.6437 32.0501 14.339 32.0501C14.0577 32.0501 13.7764 32.1556 13.4951 32.3665C13.2139 32.5775 13.0732 32.9291 13.0732 33.4213V36.1287H11.7723V28.1824H13.0732V31.7688C13.1904 31.4406 13.419 31.2004 13.7589 31.048C14.0987 30.8957 14.3976 30.8195 14.6554 30.8195C15.3118 30.8195 15.8216 31.0363 16.1849 31.4699C16.5482 31.9036 16.7299 32.4954 16.7299 33.2455ZM18.066 33.562C18.066 32.7416 18.3414 32.0794 18.8923 31.5754C19.4431 31.0715 20.0819 30.8195 20.8085 30.8195C21.5117 30.8195 22.1505 31.0715 22.7248 31.5754C23.299 32.0794 23.5862 32.7416 23.5862 33.562C23.5862 34.4058 23.3049 35.068 22.7423 35.5485C22.1798 36.0291 21.5352 36.2693 20.8085 36.2693C20.0584 36.2693 19.4138 36.0232 18.8747 35.531C18.3356 35.0387 18.066 34.3824 18.066 33.562ZM22.2852 33.562C22.2852 33.1166 22.1387 32.7474 21.8457 32.4544C21.5527 32.1614 21.207 32.0149 20.8085 32.0149C20.3866 32.0149 20.0408 32.1614 19.7713 32.4544C19.5017 32.7474 19.3669 33.1166 19.3669 33.562C19.3669 34.0073 19.5076 34.3707 19.7889 34.652C20.0701 34.9332 20.41 35.0739 20.8085 35.0739C21.207 35.0739 21.5527 34.9332 21.8457 34.652C22.1387 34.3707 22.2852 34.0073 22.2852 33.562ZM24.641 33.562C24.641 32.7416 24.9164 32.0794 25.4673 31.5754C26.0181 31.0715 26.6569 30.8195 27.3835 30.8195C28.1102 30.8195 28.7548 31.0715 29.3173 31.5754C29.8799 32.0794 30.1612 32.7416 30.1612 33.562C30.1612 34.4058 29.8858 35.068 29.3349 35.5485C28.7841 36.0291 28.1336 36.2693 27.3835 36.2693C26.6569 36.2693 26.0181 36.0232 25.4673 35.531C24.9164 35.0387 24.641 34.3824 24.641 33.562ZM28.8602 33.562C28.8602 33.1166 28.7196 32.7474 28.4383 32.4544C28.157 32.1614 27.8054 32.0149 27.3835 32.0149C26.9616 32.0149 26.6158 32.1614 26.3463 32.4544C26.0767 32.7474 25.9419 33.1166 25.9419 33.562C25.9419 34.0073 26.0826 34.3707 26.3639 34.652C26.6451 34.9332 26.985 35.0739 27.3835 35.0739C27.782 35.0739 28.1277 34.9332 28.4207 34.652C28.7137 34.3707 28.8602 34.0073 28.8602 33.562ZM31.6028 36.1287V28.1824H32.8685V36.1287H31.6028ZM34.2749 34.5465H35.4704C35.4704 34.734 35.5466 34.8922 35.6989 35.0211C35.8513 35.1501 36.0564 35.2145 36.3143 35.2145C36.5721 35.2145 36.7772 35.1618 36.9296 35.0563C37.0819 34.9508 37.1581 34.816 37.1581 34.652C37.1581 34.5113 37.1054 34.4 36.9999 34.3179C36.8944 34.2359 36.7479 34.1831 36.5604 34.1597L35.8923 33.9487C35.2829 33.8081 34.8844 33.5913 34.6969 33.2983C34.5093 33.0053 34.4156 32.6947 34.4156 32.3665C34.4156 31.9915 34.5914 31.6399 34.943 31.3117C35.2946 30.9836 35.7517 30.8195 36.3143 30.8195C36.7831 30.8195 37.2284 30.9484 37.6503 31.2062C38.0723 31.4641 38.2715 31.8743 38.2481 32.4368H37.0526C37.0526 32.2728 36.9823 32.138 36.8417 32.0325C36.701 31.927 36.5369 31.8743 36.3494 31.8743C36.1619 31.8743 36.0037 31.9329 35.8747 32.0501C35.7458 32.1673 35.6814 32.2962 35.6814 32.4368C35.6814 32.5775 35.7341 32.683 35.8396 32.7533C35.9451 32.8236 36.0798 32.8822 36.2439 32.9291L37.0878 33.1401C37.6503 33.3041 38.0137 33.5385 38.1778 33.8433C38.3418 34.148 38.4239 34.4176 38.4239 34.652C38.4239 35.1676 38.2071 35.5661 37.7734 35.8474C37.3398 36.1287 36.8651 36.2693 36.3494 36.2693C35.8337 36.2693 35.3591 36.1228 34.9254 35.8298C34.4918 35.5368 34.2749 35.109 34.2749 34.5465Z" fill="#04AA6D"/>
</g>
<defs>
<clipPath id="clip0_1_497">
<rect width="38.36" height="36" fill="white" transform="matrix(1 0 0 -1 0.309998 36.2693)"/>
</clipPath>
</defs>
</svg>
